<?xml version="1.0" encoding="utf-8"?>
<!-- Generator: Adobe Illustrator 27.7.0, SVG Export Plug-In . SVG Version: 6.00 Build 0)  -->
<svg version="1.1" xmlns="http://www.w3.org/2000/svg" xmlns:xlink="http://www.w3.org/1999/xlink" x="0px" y="0px"
	 viewBox="0 0 290 290" style="enable-background:new 0 0 290 290;" xml:space="preserve">
<style type="text/css">
	.st0{fill:#FFFFFF;}
</style>
<g id="图层_2">
	<polygon class="st0" points="106.2,128.1 209.5,128.1 229.8,168.3 215.7,206.3 176.1,249.7 103.6,243.9 84.3,201.1 70.7,181.8 
		83.7,128.1 	"/>
</g>
<g id="图层_1">
	<g id="图层_4">
		<g>
			<path d="M276.4,94.6c-0.1-0.6-0.3-1.3-0.5-1.8c-0.3-0.6-0.5-1.1-0.9-1.7c-0.4-0.5-0.8-1-1.3-1.5s-0.9-0.9-1.5-1.3
				c-0.5-0.4-1.1-0.6-1.7-0.9s-1.1-0.4-1.8-0.5c-0.6-0.1-1.3-0.3-1.9-0.3c-40.7,0-69.6-68.6-117.6-68.6s-77,68.6-117.6,68.6
				c-0.6,0-1.3,0.1-1.9,0.3c-0.6,0.1-1.3,0.3-1.8,0.5c-0.6,0.3-1.1,0.5-1.7,0.9c-0.5,0.4-1,0.8-1.5,1.3s-0.9,0.9-1.3,1.5
				c-0.4,0.5-0.6,1.1-0.9,1.7s-0.4,1.1-0.5,1.8c-0.1,0.6-0.1,1.3-0.1,1.9c0,1.4,0.3,2.7,0.8,4s1.3,2.3,2.3,3.3
				c9,14.8,36.1,41.8,36.1,41.8v37.2c0,12.4,5.5,21.5,11.2,26.5c3.4,3.1,5,3.1,7.3,4c0.4,1.1,1.5,3.7,2.9,6.6
				c4.2,24.1,18.6,53,66.8,53s62.6-29.1,66.8-53c1.4-2.9,2.5-5.5,2.9-6.6c2.3-0.9,3.8-1,7.3-4c5.6-5,11.2-14,11.2-26.5v-37.2
				c0,0,27-27.1,36.1-41.8c1-0.9,1.8-2,2.3-3.3s0.8-2.5,0.8-4C276.6,95.9,276.6,95.3,276.4,94.6z M217.7,182.8
				c0,7.1-2.3,9.8-4.5,11.7s-3.7,2.3-3.7,2.3l-5.2,1.3l-1.7,5.1c0,0-1.3,3.7-4,8.7c-7.8,6.4-15.8,12.1-20,12.1
				c-9.8,0-19.6-9.8-29.4-9.8c-9.8,0-19.6,9.8-29.4,9.8c-4.3,0-12.4-5.7-20-12.1c-2.7-5-4-8.7-4-8.7l-1.7-5.1l-5.2-1.3
				c0,0-1.5-0.4-3.7-2.3s-4.5-4.6-4.5-11.7v-12.1c0-13.1,8-19.4,18.5-25.2h110.6c4.7,8.2,8.2,19.8,8.2,29.4v7.9L217.7,182.8
				L217.7,182.8z"/>
			<path d="M128.7,171.2c-0.3-0.6-0.5-1.1-0.9-1.7s-0.8-1-1.3-1.5s-1-0.9-1.5-1.3c-0.5-0.4-1.1-0.6-1.7-0.9
				c-0.6-0.3-1.1-0.4-1.8-0.5s-1.3-0.1-1.9-0.1s-1.3,0-1.9,0.1s-1.3,0.3-1.8,0.5c-0.5,0.3-1.1,0.5-1.7,0.9c-0.5,0.4-1,0.8-1.5,1.3
				s-0.9,1-1.3,1.5s-0.6,1.1-0.9,1.7c-0.3,0.6-0.4,1.1-0.5,1.8c-0.1,0.6-0.3,1.3-0.3,1.9s0.1,1.3,0.3,1.9c0.1,0.6,0.3,1.3,0.5,1.8
				c0.3,0.6,0.5,1.1,0.9,1.7c0.4,0.5,0.8,1,1.3,1.5s0.9,0.9,1.5,1.3c0.5,0.4,1.1,0.6,1.7,0.9c0.6,0.3,1.1,0.4,1.8,0.5
				c0.6,0.1,1.3,0.3,1.9,0.3s1.3-0.1,1.9-0.3c0.6-0.1,1.3-0.3,1.8-0.5c0.6-0.3,1.1-0.5,1.7-0.9c0.5-0.4,1-0.8,1.5-1.3
				s0.9-0.9,1.3-1.5c0.4-0.5,0.6-1.1,0.9-1.7s0.4-1.1,0.5-1.8c0.1-0.6,0.1-1.3,0.1-1.9s0-1.3-0.1-1.9
				C129.1,172.4,129,171.9,128.7,171.2z"/>
			<path d="M196.7,167.5c-0.5-1.1-1.1-2.3-1.8-3.4c-0.8-1-1.5-2-2.4-2.9s-1.9-1.8-2.9-2.4c-1-0.8-2.2-1.3-3.4-1.8
				c-1.1-0.5-2.4-0.9-3.7-1.1c-1.3-0.3-2.5-0.4-3.8-0.4s-2.5,0.1-3.8,0.4c-1.3,0.3-2.4,0.6-3.7,1.1c-1.1,0.5-2.3,1.1-3.4,1.8
				c-1,0.8-2,1.5-2.9,2.4s-1.8,1.9-2.4,2.9c-0.8,1-1.3,2.2-1.8,3.4c-0.5,1.1-0.9,2.4-1.1,3.7c-0.3,1.3-0.4,2.5-0.4,3.8
				s0.1,2.5,0.4,3.8c0.3,1.3,0.6,2.5,1.1,3.7c0.5,1.1,1.1,2.3,1.8,3.4c0.8,1,1.5,2,2.4,2.9s1.9,1.8,2.9,2.4c1,0.8,2.2,1.3,3.4,1.8
				c1.1,0.5,2.4,0.9,3.7,1.1c1.3,0.3,2.5,0.4,3.8,0.4s2.5-0.1,3.8-0.4c1.3-0.3,2.5-0.6,3.7-1.1c1.1-0.5,2.3-1.1,3.4-1.8
				c1.1-0.6,2-1.5,2.9-2.4s1.8-1.9,2.4-2.9c0.6-1,1.3-2.2,1.8-3.4c0.5-1.1,0.9-2.4,1.1-3.7c0.3-1.3,0.4-2.5,0.4-3.8
				s-0.1-2.5-0.4-3.8C197.6,170,197.2,168.7,196.7,167.5z"/>
		</g>
	</g>
	<g id="图层_2_00000134953394162366201600000012974559634844670123_">
		<g>
			<path class="st0" d="M168.2,84.8c0,3.8-3.1,6.9-6.9,6.9c-3.4,0-6.4-2.5-6.9-6l-0.5-4.6c-0.3-2.2,0.5-4.3,2-5.9
				c1.5-1.5,3.7-2.2,5.9-1.8l0.6,0.1c3.3,0.5,5.7,3.4,5.7,6.8L168.2,84.8L168.2,84.8z M154.4,100.9c-0.8,1.4-2.2,2.2-3.7,2.2h-3.2
				c-1.5,0-2.9-0.8-3.7-2.2c-0.8-1.4-0.6-2.9,0.1-4.2l2.4-3.8c0.5-0.9,1.5-1.4,2.5-1.4s2,0.5,2.5,1.4l2.4,3.8
				C155,98,155.1,99.5,154.4,100.9z M136.9,91.7c-3.8,0-6.9-3.1-6.9-6.9v-4.5c0-3.4,2.4-6.2,5.7-6.8l0.6-0.1
				c2.2-0.4,4.3,0.3,5.9,1.8c1.5,1.5,2.3,3.7,2,5.9l-0.5,4.6C143.4,89.2,140.5,91.7,136.9,91.7z M177.2,94l-1.1-1.5
				c-1-1.4-1.7-3.1-1.5-4.7l0.1-4.2c0-0.4,0-0.6,0-1c0-7.1-3.2-13.9-8.8-18.2c-4.1-3.2-9.3-5.1-14.5-5.1H147
				c-5.2,0-10.3,1.8-14.5,5.1c-5.6,4.5-8.8,11.1-8.8,18.2c0,0.4,0,0.6,0,1l0.1,4.2c0.1,1.7-0.5,3.4-1.5,4.7l-1.1,1.5
				c-0.9,1-1.1,2.4-1,3.8c0.1,0.8,0.5,1.5,1,2.2c0.5,0.6,1.1,1.1,1.9,1.4l0.3,0.1c1.5,0.6,2.8,1.8,3.6,3.2c1.4,2.7,4.3,4.5,7.4,4.5
				H164c3.1,0,6-1.7,7.4-4.5c0.8-1.5,2-2.5,3.6-3.2l0.3-0.1c0.8-0.3,1.4-0.8,1.9-1.4s0.9-1.4,1-2.2C178.3,96.5,178.1,95.1,177.2,94"
				/>
		</g>
		<g>
			<path class="st0" d="M162.9,116.6v1.5c0,3.6-2.9,6.4-6.4,6.4h-14.7c-3.6,0-6.4-2.9-6.4-6.4v-1.5c0-1.9,1.7-3.6,3.6-3.6h20.3
				C161.2,113,162.9,114.5,162.9,116.6"/>
		</g>
	</g>
</g>
</svg>
